<?xml version="1.0" standalone="no"?><!DOCTYPE svg PUBLIC "-//W3C//DTD SVG 1.1//EN" "http://www.w3.org/Graphics/SVG/1.1/DTD/svg11.dtd"><svg t="1719476869332" class="icon" viewBox="0 0 1024 1024" version="1.1" xmlns="http://www.w3.org/2000/svg" p-id="6224" width="128" height="128" xmlns:xlink="http://www.w3.org/1999/xlink"><path d="M501 68c239.692 0 434 194.308 434 434 0 106.633-38.456 204.283-102.256 279.84l0.153 0.148 104.814 104.811c14.059 14.059 14.059 36.853 0 50.912-14.06 14.059-36.853 14.059-50.912 0L782.147 833.059l-0.226-0.23C706.216 897.175 608.14 936 501 936 261.308 936 67 741.692 67 502S261.308 68 501 68z m0 72c-199.927 0-362 162.073-362 362s162.073 362 362 362 362-162.073 362-362-162.073-362-362-362z m93.942 386.898c53.232 0 96.385 43.154 96.385 96.386v64.358c0 25.05-20.307 45.358-45.358 45.358H369.286c-25.05 0-45.358-20.307-45.358-45.358v-64.358c0-53.232 43.153-96.386 96.385-96.386h174.629z m3.235 65h-180.1c-13.75 0-24.924 13.63-25.146 30.548l-0.004 0.514v48.039h230.4v-48.04c0-16.982-11.036-30.782-24.734-31.056l-0.416-0.005zM507.627 223c73.586 0 133.24 59.653 133.24 133.239 0 72.85-58.467 132.045-131.036 133.221l-2.204 0.018c-73.585 0-133.239-59.653-133.239-133.239 0-72.85 58.466-132.045 131.036-133.221l2.203-0.018z m0.122 65.239l-1.429 0.011-0.952 0.024c-36.165 1.168-65.15 30.6-65.733 66.853l-0.009 1.112c0 37.18 29.84 67.392 66.877 67.992l0.973 0.008 1.458-0.012 0.953-0.023c36.165-1.168 65.15-30.6 65.733-66.853l0.009-1.112c0-37.18-29.84-67.391-66.877-67.992l-1.003-0.008z" fill="#262A30" p-id="6225"></path></svg>